<svg width="41" height="41" viewBox="0 0 41 41" fill="none" xmlns="http://www.w3.org/2000/svg">
<path d="M11.1611 3.4302C10.0561 3.42031 8.99241 3.84979 8.20404 4.62416C7.41568 5.39854 6.96722 6.45437 6.95733 7.5594L6.73354 32.5584C6.72364 33.6634 7.15313 34.7271 7.9275 35.5155C8.70188 36.3038 9.75771 36.7523 10.8627 36.7622L32.9452 36.9599C33.2767 36.9628 33.5958 36.834 33.8323 36.6017C34.0688 36.3694 34.2034 36.0526 34.2063 35.7211C34.2093 35.3896 34.0804 35.0705 33.8481 34.834C33.6158 34.5975 33.2991 34.4629 32.9676 34.46L10.8851 34.2623C10.4431 34.2583 10.0208 34.079 9.71102 33.7636C9.40127 33.4483 9.22948 33.0228 9.23344 32.5808L32.9825 32.7934C33.314 32.7963 33.6331 32.6675 33.8696 32.4352C34.1061 32.2029 34.2407 31.8861 34.2436 31.5546L34.4562 7.80557C34.4611 7.25842 34.3582 6.71566 34.1533 6.20828C33.9485 5.7009 33.6457 5.23884 33.2623 4.84849C32.8788 4.45813 32.4223 4.14711 31.9186 3.9332C31.415 3.71929 30.8742 3.60667 30.327 3.60177L11.1611 3.4302ZM26.0076 20.6471L26.0001 21.4804C25.9852 23.147 23.6691 24.3763 20.5576 24.3485C17.446 24.3206 15.1523 23.05 15.1672 21.3834L15.1747 20.5501C15.1777 20.2186 15.3122 19.9019 15.5487 19.6696C15.7852 19.4373 16.1043 19.3084 16.4358 19.3114L24.7688 19.386C25.1003 19.3889 25.4171 19.5235 25.6494 19.76C25.8817 19.9965 26.0106 20.3156 26.0076 20.6471V20.6471ZM23.56 14.7833C23.5531 15.5568 23.2392 16.2959 22.6873 16.838C22.1354 17.38 21.3909 17.6807 20.6173 17.6738C19.8438 17.6668 19.1047 17.3529 18.5627 16.8011C18.0206 16.2492 17.72 15.5046 17.7269 14.7311C17.7413 13.1228 19.0579 11.8346 20.6695 11.849C22.2811 11.8634 23.5744 13.1734 23.56 14.7833Z" fill="white"/>
</svg>
