<svg  class="texto" width="287" height="98" viewBox="0 0 287 98" fill="none" xmlns="http://www.w3.org/2000/svg">
<style>
.texto .iam {
    stroke: #FEFEFE;
    stroke-width: 2px;
    stroke-dasharray: 300;
    stroke-dashoffset: 300;
    animation: lett-tracado-iam 5s ease-in-out forwards 1s;
}

@keyframes lett-tracado-iam {
    to {
        stroke-dashoffset: 0;
        fill: #FEFEFE;
    }
}

.texto .edvanderson {
    stroke: #A0079A;
    stroke-width: 2px;
    stroke-dasharray: 300;
    stroke-dashoffset: 300;
    animation: lett-tracado-edvanderson 7s ease-in-out forwards 1s;
}

@keyframes lett-tracado-edvanderson {
    to {
        stroke-dashoffset: 0;
        fill: #A0079A;
    }
}

</style>
<path class="iam" d="M6.84375 37H0.117188V3.39062H6.84375V16.8438H20.2734V3.39062H27V37H20.2734V23.5703H6.84375V37ZM40.125 5.07812C40.125 5.67187 40.0078 6.22656 39.7734 6.74219C39.5547 7.25781 39.25 7.71094 38.8594 8.10156C38.4688 8.47656 38.0078 8.78125 37.4766 9.01562C36.9609 9.23438 36.4062 9.34375 35.8125 9.34375C35.2188 9.34375 34.6562 9.23438 34.125 9.01562C33.6094 8.78125 33.1562 8.47656 32.7656 8.10156C32.3906 7.71094 32.0859 7.25781 31.8516 6.74219C31.6328 6.22656 31.5234 5.67187 31.5234 5.07812C31.5234 4.5 31.6328 3.95312 31.8516 3.4375C32.0859 2.90625 32.3906 2.45312 32.7656 2.07812C33.1562 1.6875 33.6094 1.38281 34.125 1.16406C34.6562 0.929688 35.2188 0.8125 35.8125 0.8125C36.4062 0.8125 36.9609 0.929688 37.4766 1.16406C38.0078 1.38281 38.4688 1.6875 38.8594 2.07812C39.25 2.45312 39.5547 2.90625 39.7734 3.4375C40.0078 3.95312 40.125 4.5 40.125 5.07812ZM39.0234 37H32.5781V11.8984H39.0234V37ZM51.7969 34.6094C51.7969 35.2969 51.7266 36.0391 51.5859 36.8359C51.4609 37.6172 51.25 38.3906 50.9531 39.1562C50.6719 39.9375 50.2969 40.6719 49.8281 41.3594C49.375 42.0625 48.8203 42.6562 48.1641 43.1406L45.6094 41.3594C46.0469 40.8594 46.375 40.3828 46.5938 39.9297C46.8125 39.4922 46.9844 39.0469 47.1094 38.5938C46.6406 38.5 46.2031 38.3359 45.7969 38.1016C45.3906 37.8672 45.0391 37.5703 44.7422 37.2109C44.4453 36.8672 44.2109 36.4766 44.0391 36.0391C43.8672 35.5859 43.7812 35.1094 43.7812 34.6094C43.7812 34.0625 43.8828 33.5469 44.0859 33.0625C44.3047 32.5781 44.5938 32.1562 44.9531 31.7969C45.3281 31.4375 45.75 31.1562 46.2188 30.9531C46.7031 30.7344 47.2188 30.625 47.7656 30.625C48.3281 30.625 48.8516 30.7344 49.3359 30.9531C49.8359 31.1562 50.2656 31.4375 50.625 31.7969C51 32.1562 51.2891 32.5781 51.4922 33.0625C51.6953 33.5469 51.7969 34.0625 51.7969 34.6094ZM77.4844 37H70.7578V3.39062H77.4844V37ZM120.82 37H119.273L116.789 33.5547C116.18 34.1016 115.531 34.6172 114.844 35.1016C114.172 35.5703 113.461 35.9844 112.711 36.3438C111.961 36.6875 111.188 36.9609 110.391 37.1641C109.609 37.3672 108.812 37.4688 108 37.4688C106.234 37.4688 104.57 37.1719 103.008 36.5781C101.461 35.9844 100.102 35.125 98.9297 34C97.7734 32.8594 96.8594 31.4688 96.1875 29.8281C95.5156 28.1875 95.1797 26.3203 95.1797 24.2266C95.1797 22.2734 95.5156 20.4844 96.1875 18.8594C96.8594 17.2188 97.7734 15.8125 98.9297 14.6406C100.102 13.4688 101.461 12.5625 103.008 11.9219C104.57 11.2656 106.234 10.9375 108 10.9375C108.812 10.9375 109.617 11.0391 110.414 11.2422C111.211 11.4453 111.984 11.7266 112.734 12.0859C113.484 12.4453 114.195 12.8672 114.867 13.3516C115.555 13.8359 116.195 14.3594 116.789 14.9219L119.273 11.9453H120.82V37ZM114.375 24.2266C114.375 23.3516 114.203 22.5078 113.859 21.6953C113.531 20.8672 113.078 20.1406 112.5 19.5156C111.922 18.875 111.242 18.3672 110.461 17.9922C109.695 17.6016 108.875 17.4062 108 17.4062C107.125 17.4062 106.297 17.5547 105.516 17.8516C104.75 18.1484 104.078 18.5859 103.5 19.1641C102.938 19.7422 102.492 20.4609 102.164 21.3203C101.836 22.1641 101.672 23.1328 101.672 24.2266C101.672 25.3203 101.836 26.2969 102.164 27.1562C102.492 28 102.938 28.7109 103.5 29.2891C104.078 29.8672 104.75 30.3047 105.516 30.6016C106.297 30.8984 107.125 31.0469 108 31.0469C108.875 31.0469 109.695 30.8594 110.461 30.4844C111.242 30.0938 111.922 29.5859 112.5 28.9609C113.078 28.3203 113.531 27.5938 113.859 26.7812C114.203 25.9531 114.375 25.1016 114.375 24.2266ZM157.641 37H151.266V21.0625C151.266 20.625 151.18 20.2109 151.008 19.8203C150.852 19.4297 150.625 19.0859 150.328 18.7891C150.031 18.4922 149.688 18.2656 149.297 18.1094C148.906 17.9375 148.492 17.8516 148.055 17.8516C147.617 17.8516 147.203 17.9375 146.812 18.1094C146.438 18.2656 146.102 18.4922 145.805 18.7891C145.523 19.0859 145.297 19.4297 145.125 19.8203C144.969 20.2109 144.891 20.625 144.891 21.0625V37H138.492V21.0625C138.492 20.625 138.406 20.2109 138.234 19.8203C138.078 19.4297 137.852 19.0859 137.555 18.7891C137.258 18.4922 136.914 18.2656 136.523 18.1094C136.133 17.9375 135.719 17.8516 135.281 17.8516C134.844 17.8516 134.43 17.9375 134.039 18.1094C133.664 18.2656 133.328 18.4922 133.031 18.7891C132.75 19.0859 132.523 19.4297 132.352 19.8203C132.195 20.2109 132.117 20.625 132.117 21.0625V37H125.719V11.8984H127.266L129 13.8203C129.891 13.0703 130.867 12.4922 131.93 12.0859C133.008 11.6641 134.125 11.4531 135.281 11.4531C136.453 11.4531 137.594 11.6719 138.703 12.1094C139.828 12.5469 140.812 13.3047 141.656 14.3828C142.047 13.8516 142.492 13.3984 142.992 13.0234C143.492 12.6484 144.016 12.3438 144.562 12.1094C145.125 11.875 145.703 11.7109 146.297 11.6172C146.891 11.5078 147.477 11.4531 148.055 11.4531C149.383 11.4531 150.625 11.7031 151.781 12.2031C152.953 12.7031 153.969 13.3906 154.828 14.2656C155.703 15.125 156.391 16.1406 156.891 17.3125C157.391 18.4844 157.641 19.7344 157.641 21.0625V37Z" />

<path class="edvanderson" d="M23.1562 97H0.117188V63.3906H23.1562V70.1172H6.84375V76.8438H17.8828V83.5703H6.84375V90.2734H23.1562V97ZM50.7422 97H49.1953L46.7109 93.5547C46.1016 94.1016 45.4531 94.6172 44.7656 95.1016C44.0938 95.5703 43.3828 95.9844 42.6328 96.3438C41.8828 96.6875 41.1094 96.9609 40.3125 97.1641C39.5312 97.3672 38.7344 97.4688 37.9219 97.4688C36.1562 97.4688 34.4922 97.1406 32.9297 96.4844C31.3828 95.8125 30.0234 94.8906 28.8516 93.7188C27.6953 92.5312 26.7812 91.1328 26.1094 89.5234C25.4375 87.8984 25.1016 86.1328 25.1016 84.2266C25.1016 82.3359 25.4375 80.5781 26.1094 78.9531C26.7812 77.3281 27.6953 75.9219 28.8516 74.7344C30.0234 73.5469 31.3828 72.6172 32.9297 71.9453C34.4922 71.2734 36.1562 70.9375 37.9219 70.9375C38.4844 70.9375 39.0625 70.9844 39.6562 71.0781C40.2656 71.1719 40.8516 71.3281 41.4141 71.5469C41.9922 71.75 42.5312 72.0234 43.0312 72.3672C43.5312 72.7109 43.9531 73.1328 44.2969 73.6328V61.9141H50.7422V97ZM44.2969 84.2266C44.2969 83.3516 44.125 82.5078 43.7812 81.6953C43.4531 80.8672 43 80.1406 42.4219 79.5156C41.8438 78.875 41.1641 78.3672 40.3828 77.9922C39.6172 77.6016 38.7969 77.4062 37.9219 77.4062C37.0469 77.4062 36.2188 77.5625 35.4375 77.875C34.6719 78.1875 34 78.6406 33.4219 79.2344C32.8594 79.8125 32.4141 80.5234 32.0859 81.3672C31.7578 82.2109 31.5938 83.1641 31.5938 84.2266C31.5938 85.1484 31.7578 86.0234 32.0859 86.8516C32.4141 87.6797 32.8594 88.4062 33.4219 89.0312C34 89.6562 34.6719 90.1484 35.4375 90.5078C36.2188 90.8672 37.0469 91.0469 37.9219 91.0469C38.7969 91.0469 39.6172 90.8594 40.3828 90.4844C41.1641 90.0938 41.8438 89.5859 42.4219 88.9609C43 88.3203 43.4531 87.5938 43.7812 86.7812C44.125 85.9531 44.2969 85.1016 44.2969 84.2266ZM62.7656 97L53.2031 71.8984H60.4922L65.9766 87.5547L71.4375 71.8984H78.75L69.1875 97H62.7656ZM104.742 97H103.195L100.711 93.5547C100.102 94.1016 99.4531 94.6172 98.7656 95.1016C98.0938 95.5703 97.3828 95.9844 96.6328 96.3438C95.8828 96.6875 95.1094 96.9609 94.3125 97.1641C93.5312 97.3672 92.7344 97.4688 91.9219 97.4688C90.1562 97.4688 88.4922 97.1719 86.9297 96.5781C85.3828 95.9844 84.0234 95.125 82.8516 94C81.6953 92.8594 80.7812 91.4688 80.1094 89.8281C79.4375 88.1875 79.1016 86.3203 79.1016 84.2266C79.1016 82.2734 79.4375 80.4844 80.1094 78.8594C80.7812 77.2188 81.6953 75.8125 82.8516 74.6406C84.0234 73.4688 85.3828 72.5625 86.9297 71.9219C88.4922 71.2656 90.1562 70.9375 91.9219 70.9375C92.7344 70.9375 93.5391 71.0391 94.3359 71.2422C95.1328 71.4453 95.9062 71.7266 96.6562 72.0859C97.4062 72.4453 98.1172 72.8672 98.7891 73.3516C99.4766 73.8359 100.117 74.3594 100.711 74.9219L103.195 71.9453H104.742V97ZM98.2969 84.2266C98.2969 83.3516 98.125 82.5078 97.7812 81.6953C97.4531 80.8672 97 80.1406 96.4219 79.5156C95.8438 78.875 95.1641 78.3672 94.3828 77.9922C93.6172 77.6016 92.7969 77.4062 91.9219 77.4062C91.0469 77.4062 90.2188 77.5547 89.4375 77.8516C88.6719 78.1484 88 78.5859 87.4219 79.1641C86.8594 79.7422 86.4141 80.4609 86.0859 81.3203C85.7578 82.1641 85.5938 83.1328 85.5938 84.2266C85.5938 85.3203 85.7578 86.2969 86.0859 87.1562C86.4141 88 86.8594 88.7109 87.4219 89.2891C88 89.8672 88.6719 90.3047 89.4375 90.6016C90.2188 90.8984 91.0469 91.0469 91.9219 91.0469C92.7969 91.0469 93.6172 90.8594 94.3828 90.4844C95.1641 90.0938 95.8438 89.5859 96.4219 88.9609C97 88.3203 97.4531 87.5938 97.7812 86.7812C98.125 85.9531 98.2969 85.1016 98.2969 84.2266ZM116.039 97H109.641V71.8984H111.188L113.297 74.3359C114.328 73.3984 115.492 72.6797 116.789 72.1797C118.102 71.6641 119.469 71.4062 120.891 71.4062C122.422 71.4062 123.867 71.7031 125.227 72.2969C126.586 72.875 127.773 73.6797 128.789 74.7109C129.805 75.7266 130.602 76.9219 131.18 78.2969C131.773 79.6562 132.07 81.1094 132.07 82.6562V97H125.672V82.6562C125.672 82 125.547 81.3828 125.297 80.8047C125.047 80.2109 124.703 79.6953 124.266 79.2578C123.828 78.8203 123.32 78.4766 122.742 78.2266C122.164 77.9766 121.547 77.8516 120.891 77.8516C120.219 77.8516 119.586 77.9766 118.992 78.2266C118.398 78.4766 117.883 78.8203 117.445 79.2578C117.008 79.6953 116.664 80.2109 116.414 80.8047C116.164 81.3828 116.039 82 116.039 82.6562V97ZM160.898 97H159.352L156.867 93.5547C156.258 94.1016 155.609 94.6172 154.922 95.1016C154.25 95.5703 153.539 95.9844 152.789 96.3438C152.039 96.6875 151.266 96.9609 150.469 97.1641C149.688 97.3672 148.891 97.4688 148.078 97.4688C146.312 97.4688 144.648 97.1406 143.086 96.4844C141.539 95.8125 140.18 94.8906 139.008 93.7188C137.852 92.5312 136.938 91.1328 136.266 89.5234C135.594 87.8984 135.258 86.1328 135.258 84.2266C135.258 82.3359 135.594 80.5781 136.266 78.9531C136.938 77.3281 137.852 75.9219 139.008 74.7344C140.18 73.5469 141.539 72.6172 143.086 71.9453C144.648 71.2734 146.312 70.9375 148.078 70.9375C148.641 70.9375 149.219 70.9844 149.812 71.0781C150.422 71.1719 151.008 71.3281 151.57 71.5469C152.148 71.75 152.688 72.0234 153.188 72.3672C153.688 72.7109 154.109 73.1328 154.453 73.6328V61.9141H160.898V97ZM154.453 84.2266C154.453 83.3516 154.281 82.5078 153.938 81.6953C153.609 80.8672 153.156 80.1406 152.578 79.5156C152 78.875 151.32 78.3672 150.539 77.9922C149.773 77.6016 148.953 77.4062 148.078 77.4062C147.203 77.4062 146.375 77.5625 145.594 77.875C144.828 78.1875 144.156 78.6406 143.578 79.2344C143.016 79.8125 142.57 80.5234 142.242 81.3672C141.914 82.2109 141.75 83.1641 141.75 84.2266C141.75 85.1484 141.914 86.0234 142.242 86.8516C142.57 87.6797 143.016 88.4062 143.578 89.0312C144.156 89.6562 144.828 90.1484 145.594 90.5078C146.375 90.8672 147.203 91.0469 148.078 91.0469C148.953 91.0469 149.773 90.8594 150.539 90.4844C151.32 90.0938 152 89.5859 152.578 88.9609C153.156 88.3203 153.609 87.5938 153.938 86.7812C154.281 85.9531 154.453 85.1016 154.453 84.2266ZM175.781 90.8594C176.031 90.9375 176.281 90.9922 176.531 91.0234C176.781 91.0391 177.031 91.0469 177.281 91.0469C177.906 91.0469 178.508 90.9609 179.086 90.7891C179.664 90.6172 180.203 90.375 180.703 90.0625C181.219 89.7344 181.672 89.3438 182.062 88.8906C182.469 88.4219 182.797 87.9062 183.047 87.3438L187.734 92.0547C187.141 92.8984 186.453 93.6562 185.672 94.3281C184.906 95 184.07 95.5703 183.164 96.0391C182.273 96.5078 181.328 96.8594 180.328 97.0938C179.344 97.3438 178.328 97.4688 177.281 97.4688C175.516 97.4688 173.852 97.1406 172.289 96.4844C170.742 95.8281 169.383 94.9141 168.211 93.7422C167.055 92.5703 166.141 91.1797 165.469 89.5703C164.797 87.9453 164.461 86.1641 164.461 84.2266C164.461 82.2422 164.797 80.4297 165.469 78.7891C166.141 77.1484 167.055 75.75 168.211 74.5938C169.383 73.4375 170.742 72.5391 172.289 71.8984C173.852 71.2578 175.516 70.9375 177.281 70.9375C178.328 70.9375 179.352 71.0625 180.352 71.3125C181.352 71.5625 182.297 71.9219 183.188 72.3906C184.094 72.8594 184.938 73.4375 185.719 74.125C186.5 74.7969 187.188 75.5547 187.781 76.3984L175.781 90.8594ZM179.062 77.6641C178.766 77.5547 178.469 77.4844 178.172 77.4531C177.891 77.4219 177.594 77.4062 177.281 77.4062C176.406 77.4062 175.578 77.5703 174.797 77.8984C174.031 78.2109 173.359 78.6641 172.781 79.2578C172.219 79.8516 171.773 80.5703 171.445 81.4141C171.117 82.2422 170.953 83.1797 170.953 84.2266C170.953 84.4609 170.961 84.7266 170.977 85.0234C171.008 85.3203 171.047 85.625 171.094 85.9375C171.156 86.2344 171.227 86.5234 171.305 86.8047C171.383 87.0859 171.484 87.3359 171.609 87.5547L179.062 77.6641ZM197.414 97H191.016V71.8984H192.562L194.672 74.875C195.703 73.9375 196.875 73.2188 198.188 72.7188C199.5 72.2031 200.859 71.9453 202.266 71.9453H207.914V78.3203H202.266C201.594 78.3203 200.961 78.4453 200.367 78.6953C199.773 78.9453 199.258 79.2891 198.82 79.7266C198.383 80.1641 198.039 80.6797 197.789 81.2734C197.539 81.8672 197.414 82.5 197.414 83.1719V97ZM224.391 97H209.766V90.625H224.391C224.828 90.625 225.203 90.4688 225.516 90.1562C225.828 89.8438 225.984 89.4688 225.984 89.0312C225.984 88.5781 225.828 88.2812 225.516 88.1406C225.203 88 224.828 87.9297 224.391 87.9297H217.734C216.625 87.9297 215.586 87.7188 214.617 87.2969C213.648 86.875 212.805 86.3047 212.086 85.5859C211.367 84.8516 210.797 84 210.375 83.0312C209.969 82.0625 209.766 81.0234 209.766 79.9141C209.766 78.8047 209.969 77.7656 210.375 76.7969C210.797 75.8281 211.367 74.9844 212.086 74.2656C212.805 73.5469 213.648 72.9844 214.617 72.5781C215.586 72.1562 216.625 71.9453 217.734 71.9453H230.695V78.3203H217.734C217.297 78.3203 216.922 78.4766 216.609 78.7891C216.297 79.1016 216.141 79.4766 216.141 79.9141C216.141 80.3672 216.297 80.7578 216.609 81.0859C216.922 81.3984 217.297 81.5547 217.734 81.5547H224.391C225.484 81.5547 226.516 81.7422 227.484 82.1172C228.453 82.4766 229.297 82.9844 230.016 83.6406C230.734 84.2969 231.305 85.0859 231.727 86.0078C232.148 86.9297 232.359 87.9375 232.359 89.0312C232.359 90.1406 232.148 91.1797 231.727 92.1484C231.305 93.1016 230.734 93.9453 230.016 94.6797C229.297 95.3984 228.453 95.9688 227.484 96.3906C226.516 96.7969 225.484 97 224.391 97ZM260.039 84.2266C260.039 86.1016 259.703 87.8516 259.031 89.4766C258.359 91.0859 257.445 92.4844 256.289 93.6719C255.133 94.8438 253.773 95.7734 252.211 96.4609C250.664 97.1328 249 97.4688 247.219 97.4688C245.453 97.4688 243.789 97.1328 242.227 96.4609C240.68 95.7734 239.32 94.8438 238.148 93.6719C236.992 92.4844 236.078 91.0859 235.406 89.4766C234.734 87.8516 234.398 86.1016 234.398 84.2266C234.398 82.3203 234.734 80.5547 235.406 78.9297C236.078 77.3047 236.992 75.9062 238.148 74.7344C239.32 73.5469 240.68 72.6172 242.227 71.9453C243.789 71.2734 245.453 70.9375 247.219 70.9375C249 70.9375 250.664 71.2578 252.211 71.8984C253.773 72.5234 255.133 73.4219 256.289 74.5938C257.445 75.75 258.359 77.1484 259.031 78.7891C259.703 80.4141 260.039 82.2266 260.039 84.2266ZM253.594 84.2266C253.594 83.1953 253.422 82.2656 253.078 81.4375C252.75 80.5938 252.297 79.875 251.719 79.2812C251.141 78.6719 250.461 78.2109 249.68 77.8984C248.914 77.5703 248.094 77.4062 247.219 77.4062C246.344 77.4062 245.516 77.5703 244.734 77.8984C243.969 78.2109 243.297 78.6719 242.719 79.2812C242.156 79.875 241.711 80.5938 241.383 81.4375C241.055 82.2656 240.891 83.1953 240.891 84.2266C240.891 85.1953 241.055 86.0938 241.383 86.9219C241.711 87.75 242.156 88.4688 242.719 89.0781C243.297 89.6875 243.969 90.1719 244.734 90.5312C245.516 90.875 246.344 91.0469 247.219 91.0469C248.094 91.0469 248.914 90.8828 249.68 90.5547C250.461 90.2266 251.141 89.7656 251.719 89.1719C252.297 88.5781 252.75 87.8594 253.078 87.0156C253.422 86.1719 253.594 85.2422 253.594 84.2266ZM269.977 97H263.578V71.8984H265.125L267.234 74.3359C268.266 73.3984 269.43 72.6797 270.727 72.1797C272.039 71.6641 273.406 71.4062 274.828 71.4062C276.359 71.4062 277.805 71.7031 279.164 72.2969C280.523 72.875 281.711 73.6797 282.727 74.7109C283.742 75.7266 284.539 76.9219 285.117 78.2969C285.711 79.6562 286.008 81.1094 286.008 82.6562V97H279.609V82.6562C279.609 82 279.484 81.3828 279.234 80.8047C278.984 80.2109 278.641 79.6953 278.203 79.2578C277.766 78.8203 277.258 78.4766 276.68 78.2266C276.102 77.9766 275.484 77.8516 274.828 77.8516C274.156 77.8516 273.523 77.9766 272.93 78.2266C272.336 78.4766 271.82 78.8203 271.383 79.2578C270.945 79.6953 270.602 80.2109 270.352 80.8047C270.102 81.3828 269.977 82 269.977 82.6562V97Z" />
</svg>
