<svg width="51" height="51" viewBox="0 0 51 51" fill="none" xmlns="http://www.w3.org/2000/svg">
<path d="M35.1187 5.86617L15.675 5.69211C14.9383 5.68551 14.2292 5.97183 13.7036 6.48808C13.178 7.00433 12.8791 7.70822 12.8725 8.44491L12.5741 41.7769C12.5675 42.5136 12.8538 43.2227 13.3701 43.7483C13.8863 44.2739 14.5902 44.5728 15.3269 44.5794L34.7705 44.7535C35.5072 44.7601 36.2164 44.4738 36.7419 43.9575C37.2675 43.4413 37.5665 42.7374 37.5731 42.0007L37.8715 8.6687C37.8781 7.93202 37.5917 7.22289 37.0755 6.69731C36.5592 6.17173 35.8554 5.87276 35.1187 5.86617V5.86617ZM26.4624 41.9012L23.6847 41.8764L23.7096 39.0987L26.4873 39.1236L26.4624 41.9012ZM15.4015 36.2464L15.6501 8.46977L35.0938 8.64383L34.8451 36.4205L15.4015 36.2464Z" fill="white"/>
</svg>
