<svg width="51" height="36" viewBox="0 0 51 36" fill="none" xmlns="http://www.w3.org/2000/svg">
<rect x="10.7368" width="3.57895" height="3.57895" fill="#E31515"/>
<rect x="14.3158" y="3.57895" width="3.57895" height="3.57895" fill="#E31515"/>
<rect x="14.3158" y="7.1579" width="3.57895" height="3.57895" fill="#E31515"/>
<rect x="17.8947" y="7.1579" width="3.57895" height="3.57895" fill="#E31515"/>
<rect x="21.4737" y="7.1579" width="3.57895" height="3.57895" fill="#E31515"/>
<rect x="24.7544" y="7.1579" width="3.57895" height="3.57895" fill="#E31515"/>
<rect x="26.5439" y="7.1579" width="3.57895" height="3.57895" fill="#E31515"/>
<rect x="28.6316" y="7.1579" width="3.57895" height="3.57895" fill="#E31515"/>
<rect x="30.4211" y="7.1579" width="3.57895" height="3.57895" fill="#E31515"/>
<rect x="34" y="7.1579" width="3.57895" height="3.57895" fill="#E31515"/>
<rect x="36.9825" y="7.1579" width="3.57895" height="3.57895" fill="#E31515"/>
<rect x="34" y="3.57895" width="3.57895" height="3.57895" fill="#E31515"/>
<rect x="37.2807" width="3.57895" height="3.57895" fill="#E31515"/>
<rect x="10.7368" y="7.1579" width="3.57895" height="3.57895" fill="#E31515"/>
<rect x="7.1579" y="10.7368" width="3.57895" height="3.57895" fill="#E31515"/>
<rect x="10.7368" y="10.7368" width="3.57895" height="3.57895" fill="#E31515"/>
<rect x="10.7368" y="14.3158" width="3.57895" height="3.57895" fill="#E31515"/>
<rect x="7.1579" y="14.3158" width="3.57895" height="3.57895" fill="#E31515"/>
<rect x="3.57892" y="14.3158" width="3.57895" height="3.57895" fill="#E31515"/>
<rect y="17.8947" width="3.57895" height="3.57895" fill="#E31515"/>
<rect y="21.4737" width="3.57895" height="3.57895" fill="#E31515"/>
<rect y="24.7544" width="3.57895" height="3.57895" fill="#E31515"/>
<rect y="28.3333" width="3.57895" height="3.57895" fill="#E31515"/>
<rect x="3.57892" y="17.8947" width="3.57895" height="3.57895" fill="#E31515"/>
<rect x="7.1579" y="17.8947" width="3.57895" height="3.57895" fill="#E31515"/>
<rect x="7.1579" y="21.4737" width="3.57895" height="3.57895" fill="#E31515"/>
<rect x="10.7368" y="21.4737" width="3.57895" height="3.57895" fill="#E31515"/>
<rect x="14.0175" y="21.4737" width="3.57895" height="3.57895" fill="#E31515"/>
<rect x="17.5965" y="21.4737" width="3.57895" height="3.57895" fill="#E31515"/>
<rect x="20.8772" y="21.4737" width="3.57895" height="3.57895" fill="#E31515"/>
<rect x="24.4561" y="21.4737" width="3.57895" height="3.57895" fill="#E31515"/>
<rect x="26.8421" y="21.4737" width="3.57895" height="3.57895" fill="#E31515"/>
<rect x="29.8246" y="21.4737" width="3.57895" height="3.57895" fill="#E31515"/>
<rect x="32.807" y="21.4737" width="3.57895" height="3.57895" fill="#E31515"/>
<rect x="36.9825" y="21.4737" width="3.57895" height="3.57895" fill="#E31515"/>
<rect x="34.5965" y="21.4737" width="3.57895" height="3.57895" fill="#E31515"/>
<rect x="7.1579" y="25.0526" width="3.57895" height="3.57895" fill="#E31515"/>
<rect x="10.7368" y="25.0526" width="3.57895" height="3.57895" fill="#E31515"/>
<rect x="14.3158" y="25.0526" width="3.57895" height="3.57895" fill="#E31515"/>
<rect x="17.2982" y="25.0526" width="3.57895" height="3.57895" fill="#E31515"/>
<rect x="19.6842" y="25.0526" width="3.57895" height="3.57895" fill="#E31515"/>
<rect x="22.3684" y="25.0526" width="3.57895" height="3.57895" fill="#E31515"/>
<rect x="25.9474" y="25.0526" width="3.57895" height="3.57895" fill="#E31515"/>
<rect x="28.9298" y="25.0526" width="3.57895" height="3.57895" fill="#E31515"/>
<rect x="32.2105" y="25.0526" width="3.57895" height="3.57895" fill="#E31515"/>
<rect x="34.8947" y="25.0526" width="3.57895" height="3.57895" fill="#E31515"/>
<rect x="36.9825" y="25.0526" width="3.57895" height="3.57895" fill="#E31515"/>
<rect x="38.1754" y="25.0526" width="3.57895" height="3.57895" fill="#E31515"/>
<rect x="7.1579" y="28.6316" width="3.57895" height="3.57895" fill="#E31515"/>
<rect x="10.7368" y="32.2105" width="3.57895" height="3.57895" fill="#E31515"/>
<rect x="14.0175" y="32.2105" width="3.57895" height="3.57895" fill="#E31515"/>
<rect x="17.5965" y="32.2105" width="3.57895" height="3.57895" fill="#E31515"/>
<rect x="18.7895" y="32.2105" width="3.57895" height="3.57895" fill="#E31515"/>
<rect x="10.7368" y="17.8947" width="3.57895" height="3.57895" fill="#E31515"/>
<rect x="14.3158" y="17.8947" width="3.57895" height="3.57895" fill="#E31515"/>
<rect x="17.8947" y="17.8947" width="3.57895" height="3.57895" fill="#E31515"/>
<rect x="21.4737" y="17.8947" width="3.57895" height="3.57895" fill="#E31515"/>
<rect x="25.0526" y="17.8947" width="3.57895" height="3.57895" fill="#E31515"/>
<rect x="28.3333" y="17.8947" width="3.57895" height="3.57895" fill="#E31515"/>
<rect x="31.614" y="17.8947" width="3.57895" height="3.57895" fill="#E31515"/>
<rect x="35.193" y="17.8947" width="3.57895" height="3.57895" fill="#E31515"/>
<rect x="40.5614" y="17.8947" width="3.57895" height="3.57895" fill="#E31515"/>
<rect x="40.5614" y="21.4737" width="3.57895" height="3.57895" fill="#E31515"/>
<rect x="40.5614" y="25.0526" width="3.57895" height="3.57895" fill="#E31515"/>
<rect x="40.5614" y="28.6316" width="3.57895" height="3.57895" fill="#E31515"/>
<rect x="37.2807" y="32.2105" width="3.57895" height="3.57895" fill="#E31515"/>
<rect x="33.7018" y="32.2105" width="3.57895" height="3.57895" fill="#E31515"/>
<rect x="30.1228" y="32.2105" width="3.57895" height="3.57895" fill="#E31515"/>
<rect x="37.5789" y="17.8947" width="3.57895" height="3.57895" fill="#E31515"/>
<rect x="43.8421" y="17.8947" width="3.57895" height="3.57895" fill="#E31515"/>
<rect x="47.4211" y="17.8947" width="3.57895" height="3.57895" fill="#E31515"/>
<rect x="47.4211" y="21.7719" width="3.57895" height="3.57895" fill="#E31515"/>
<rect x="47.4211" y="18.7895" width="3.57895" height="3.57895" fill="#E31515"/>
<rect x="47.4211" y="25.3509" width="3.57895" height="3.57895" fill="#E31515"/>
<rect x="47.4211" y="28.6316" width="3.57895" height="3.57895" fill="#E31515"/>
<rect x="18.7895" y="14.3158" width="3.57895" height="3.57895" fill="#E31515"/>
<rect x="19.9825" y="14.3158" width="3.57895" height="3.57895" fill="#E31515"/>
<rect x="21.1754" y="14.3158" width="3.57895" height="3.57895" fill="#E31515"/>
<rect x="25.0526" y="14.3158" width="3.57895" height="3.57895" fill="#E31515"/>
<rect x="24.4561" y="14.3158" width="3.57895" height="3.57895" fill="#E31515"/>
<rect x="28.0351" y="14.3158" width="3.57895" height="3.57895" fill="#E31515"/>
<rect x="36.386" y="14.3158" width="3.57895" height="3.57895" fill="#E31515"/>
<rect x="38.1754" y="14.3158" width="3.57895" height="3.57895" fill="#E31515"/>
<rect x="40.2632" y="14.3158" width="3.57895" height="3.57895" fill="#E31515"/>
<rect x="43.8421" y="14.3158" width="3.57895" height="3.57895" fill="#E31515"/>
<rect x="14.3158" y="10.7368" width="3.57895" height="3.57895" fill="#E31515"/>
<rect x="17.5965" y="10.7368" width="3.57895" height="3.57895" fill="#E31515"/>
<rect x="19.6842" y="10.7368" width="3.57895" height="3.57895" fill="#E31515"/>
<rect x="22.9649" y="10.7368" width="3.57895" height="3.57895" fill="#E31515"/>
<rect x="25.0526" y="10.7368" width="3.57895" height="3.57895" fill="#E31515"/>
<rect x="28.0351" y="10.7368" width="3.57895" height="3.57895" fill="#E31515"/>
<rect x="30.4211" y="10.7368" width="3.57895" height="3.57895" fill="#E31515"/>
<rect x="31.9123" y="10.7368" width="3.57895" height="3.57895" fill="#E31515"/>
<rect x="33.7018" y="10.7368" width="3.57895" height="3.57895" fill="#E31515"/>
<rect x="36.9825" y="10.7368" width="3.57895" height="3.57895" fill="#E31515"/>
<rect x="40.2632" y="10.7368" width="3.57895" height="3.57895" fill="#E31515"/>
</svg>
